<svg xmlns="http://www.w3.org/2000/svg" width="40" height="40" viewBox="0 0 40 40" fill="none">
    <path d="M30.6098 9.875C27.7875 7.0625 24.0244 5.5 20.0523 5.5C11.7944 5.5 5.10453 12.1667 5.10453 20.3958C5.10453 23 5.83624 25.6042 7.09059 27.7917L5 35.5L12.9443 33.4167C15.1394 34.5625 17.5436 35.1875 20.0523 35.1875C28.3101 35.1875 35 28.5208 35 20.2917C34.8955 16.4375 33.4321 12.6875 30.6098 9.875ZM27.2648 25.7083C26.9512 26.5417 25.4878 27.375 24.7561 27.4792C24.1289 27.5833 23.2927 27.5833 22.4564 27.375C21.9338 27.1667 21.2021 26.9583 20.3659 26.5417C16.6028 24.9792 14.1986 21.2292 13.9895 20.9167C13.7805 20.7083 12.4216 18.9375 12.4216 17.0625C12.4216 15.1875 13.3624 14.3542 13.676 13.9375C13.9895 13.5208 14.4077 13.5208 14.7213 13.5208C14.9303 13.5208 15.2439 13.5208 15.453 13.5208C15.662 13.5208 15.9756 13.4167 16.2892 14.1458C16.6028 14.875 17.3345 16.75 17.439 16.8542C17.5436 17.0625 17.5436 17.2708 17.439 17.4792C17.3345 17.6875 17.23 17.8958 17.0209 18.1042C16.8118 18.3125 16.6028 18.625 16.4983 18.7292C16.2892 18.9375 16.0801 19.1458 16.2892 19.4583C16.4983 19.875 17.23 21.0208 18.3798 22.0625C19.8432 23.3125 20.993 23.7292 21.4112 23.9375C21.8293 24.1458 22.0383 24.0417 22.2474 23.8333C22.4564 23.625 23.1882 22.7917 23.3972 22.375C23.6063 21.9583 23.9199 22.0625 24.2334 22.1667C24.547 22.2708 26.4286 23.2083 26.7422 23.4167C27.1603 23.625 27.3693 23.7292 27.4739 23.8333C27.5784 24.1458 27.5784 24.875 27.2648 25.7083Z" fill="#48C95F"/>
</svg>