<svg xmlns="http://www.w3.org/2000/svg" width="40" height="40" viewBox="0 0 40 40" fill="none">
    <path fill-rule="evenodd" clip-rule="evenodd" d="M8.08521 29.9091C7.55031 29.7544 7.06225 29.4791 6.66221 29.1065C6.26218 28.7339 5.96191 28.2749 5.78675 27.7683C4.7858 25.1498 4.48922 14.2159 6.41697 12.0574C7.05856 11.3553 7.9644 10.923 8.93787 10.8543C14.1094 10.3236 30.0875 10.3943 31.9225 11.0313C32.4387 11.1911 32.9102 11.4603 33.3019 11.8188C33.6935 12.1773 33.995 12.6158 34.1839 13.1013C35.2776 15.8082 35.3146 25.6452 34.0356 28.246C33.6964 28.923 33.1284 29.4714 32.423 29.8029C30.4953 30.7229 10.6432 30.7052 8.08521 29.9091ZM16.2967 24.7783L25.5647 20.1783L16.2967 15.5428V24.7783Z" fill="#F40000"/>
</svg>