<svg xmlns="http://www.w3.org/2000/svg" width="124" height="41" viewBox="0 0 124 41" fill="none">
  <path d="M19.0946 19.7331L64.4045 0.5L72.1357 10.5034H70.9826L64.4045 3.24759L32.9314 19.7331H19.0946Z" fill="#0E51A7"/>
  <path d="M64.3868 6.87588H60.4964V8.84324H64.3868V6.87588Z" fill="#0E51A7"/>
  <path d="M0.00188614 15.4338H4.61691L9.38529 26.0501L13.4566 15.4338H17.7648L10.8632 30.9746C10.1103 32.6579 9.34346 33.9391 8.56268 34.8179C7.78188 35.6968 6.77336 36.1363 5.53712 36.1363C4.31946 36.1363 3.36671 36.0572 2.67888 35.8991V32.83C3.26446 32.8672 3.79429 32.8858 4.26834 32.8858C5.22573 32.8858 5.91124 32.7114 6.32488 32.3627C6.73851 32.0139 7.13587 31.2629 7.51698 30.1097L0.00188614 15.4338Z" fill="#3D3D3D"/>
  <path d="M19.6889 21.0697H23.6068V26.4965H29.2118V21.0697H33.1436V35.8851H29.2118V29.6632H23.6068V35.8851H19.6889V21.0697Z" fill="#3D3D3D"/>
  <path d="M36.9778 21.0697H40.7423V30.3747L46.7656 21.0697H50.6137V35.8851H46.8492V26.4128L40.7423 35.8851H36.9778V21.0697Z" fill="#3D3D3D"/>
  <path d="M54.4898 21.0698H58.3937V27.1242C59.0444 27.0499 59.5045 26.8499 59.7741 26.5244C60.0436 26.1989 60.3689 25.4874 60.75 24.39C61.252 22.9298 61.8004 21.9951 62.3953 21.5859C62.9902 21.1767 63.7709 20.9721 64.7376 20.9721C65.0351 20.9721 65.551 20.9954 66.2853 21.0419L66.2992 23.6366C65.2675 23.6367 64.6075 23.7343 64.3194 23.9296C64.0312 24.1342 63.7198 24.7434 63.3852 25.7571C62.9298 27.1243 62.2744 27.9659 61.4193 28.2821C62.6555 28.6263 63.7012 29.7004 64.5564 31.5047C64.6029 31.5977 64.654 31.6954 64.7098 31.7977L66.8988 35.8851H62.6881L60.7361 31.6024C60.3364 30.7374 59.9902 30.1817 59.6974 29.9353C59.4046 29.6888 58.97 29.5656 58.3937 29.5656V35.8851H54.4898V21.0698Z" fill="#3D3D3D"/>
  <path d="M70.5936 15.4338H84.7175V32.4533H86.5161V40.3493H83.0862V35.8851H70.2171V40.3493H66.7872V32.4533H68.5161C69.362 30.7049 69.9197 28.6751 70.1892 26.364C70.4588 24.0528 70.5936 21.1302 70.5936 17.5961V15.4338ZM74.5254 18.8656C74.5254 25.0782 73.963 29.6074 72.8383 32.4533H80.6044V18.8656H74.5254Z" fill="#0E51A7"/>
  <path d="M88.3704 28.2682C88.3704 26.9662 88.6911 25.706 89.3325 24.4876C89.9738 23.2693 90.8824 22.3393 92.0583 21.6975C93.2341 21.0558 94.547 20.7349 95.9971 20.7349C98.2372 20.7349 100.073 21.4627 101.504 22.9182C102.936 24.3737 103.652 26.2128 103.652 28.4356C103.652 30.677 102.929 32.5347 101.484 34.0088C100.038 35.4829 98.2186 36.22 96.025 36.22C94.6679 36.22 93.3735 35.913 92.1419 35.2992C90.9103 34.6854 89.9738 33.7856 89.3325 32.5998C88.6911 31.414 88.3704 29.9701 88.3704 28.2682ZM92.3859 28.4774C92.3859 29.9469 92.7345 31.0722 93.4316 31.8535C94.1288 32.6347 94.9885 33.0253 96.011 33.0253C97.0335 33.0253 97.8909 32.6347 98.5834 31.8535C99.2759 31.0722 99.6221 29.9376 99.6222 28.4495C99.6221 26.9987 99.2759 25.8827 98.5834 25.1014C97.8909 24.3202 97.0335 23.9296 96.011 23.9296C94.9885 23.9296 94.1288 24.3202 93.4316 25.1014C92.7345 25.8827 92.3859 27.008 92.3859 28.4774Z" fill="#0E51A7"/>
  <path d="M106.844 21.0697H111.697L115.377 31.3931L119.086 21.0697H123.924V35.8851H120.592V26.1338L116.981 35.8851H113.635L110.191 26.1338V35.8851H106.844V21.0697Z" fill="#0E51A7"/>
  <path d="M50.8753 19.693L79.5625 4.71481L89.1249 19.693L79.5625 6.85455L58.2989 19.7331L50.8753 19.693Z" fill="#0E51A7"/>
  <path d="M64.3868 6.87588H60.4964V8.84324H64.3868V6.87588Z" fill="#0E51A7"/>
  <path d="M80.2998 10.0235H77.2798V11.5507H80.2998V10.0235Z" fill="#0E51A7"/>
  <path d="M65.1385 38.1926H0V40.5H65.1385V38.1926Z" fill="#0E51A7"/>
  <path d="M124 38.1926H88.3961V40.5H124V38.1926Z" fill="#0E51A7"/>
</svg>