<svg xmlns="http://www.w3.org/2000/svg" width="24" height="24" viewBox="0 0 24 24" fill="none">
    <path d="M19.1175 3.83019C16.6092 1.38994 12.5246 1.38994 10.0189 3.83019L3.06926 10.5862C3.02399 10.6303 3.00002 10.6899 3.00002 10.752C3.00002 10.8142 3.02399 10.8738 3.06926 10.9178L4.0518 11.8737C4.09671 11.9172 4.1575 11.9416 4.22088 11.9416C4.28426 11.9416 4.34505 11.9172 4.38996 11.8737L11.3397 5.11767C12.2024 4.27835 13.35 3.81724 14.5695 3.81724C15.7891 3.81724 16.9367 4.27835 17.7967 5.11767C18.6595 5.957 19.1334 7.07351 19.1334 8.25737C19.1334 9.44382 18.6595 10.5577 17.7967 11.3971L10.7139 18.2852L9.56629 19.4017C8.49321 20.4457 6.74913 20.4457 5.67606 19.4017C5.15683 18.8966 4.87191 18.2256 4.87191 17.5107C4.87191 16.7957 5.15683 16.1247 5.67606 15.6196L12.703 8.78583C12.8814 8.61486 13.1157 8.51901 13.366 8.51901H13.3686C13.6189 8.51901 13.8506 8.61486 14.0263 8.78583C14.2047 8.95939 14.3006 9.18736 14.3006 9.43087C14.3006 9.67178 14.2021 9.89975 14.0263 10.0707L8.28286 15.6533C8.23759 15.6973 8.21362 15.7569 8.21362 15.8191C8.21362 15.8812 8.23759 15.9408 8.28286 15.9848L9.2654 16.9407C9.31031 16.9842 9.3711 17.0087 9.43448 17.0087C9.49786 17.0087 9.55865 16.9842 9.60356 16.9407L15.3444 11.3556C15.8743 10.8401 16.1645 10.1562 16.1645 9.42828C16.1645 8.70034 15.8716 8.01386 15.3444 7.50094C14.25 6.43624 12.4713 6.43883 11.3769 7.50094L10.6953 8.1667L4.35268 14.3347C3.92221 14.751 3.58097 15.2464 3.34877 15.792C3.11658 16.3377 2.99804 16.9227 3.00002 17.5132C3.00002 18.7126 3.48198 19.8395 4.35268 20.6866C5.25535 21.5622 6.43759 22 7.61984 22C8.80208 22 9.98433 21.5622 10.8843 20.6866L19.1175 12.6819C20.329 11.5007 21 9.92824 21 8.25737C21.0027 6.5839 20.3316 5.01146 19.1175 3.83019Z" fill="#0E51A7"/>
</svg>