<svg xmlns="http://www.w3.org/2000/svg" width="71" height="93" viewBox="0 0 71 93" fill="none">
<path d="M57.4057 32.8092L35.5 90.1959L13.5943 32.8092C7.73514 17.4598 19.0703 0.999997 35.5 0.999995C51.9297 0.999994 63.2649 17.4598 57.4057 32.8092Z" fill="black" stroke="#F1AE58" stroke-width="2"/>
<path d="M39 69L22 28.8858L30.8419 22.0411L30.8419 23.0619L24.4286 28.8858L39 56.7498L39 69Z" fill="#F1AE58"/>
<path d="M27.6356 28.9014L27.6356 32.3457L29.3745 32.3457L29.3745 28.9014L27.6356 28.9014Z" fill="#F1AE58"/>
<path d="M38.9645 40.8636L25.7254 15.4659L38.9645 7L27.6167 15.4659L39 34.2912L38.9645 40.8636Z" fill="#F1AE58"/>
<path d="M27.6356 28.9014L27.6356 32.3457L29.3745 32.3457L29.3745 28.9014L27.6356 28.9014Z" fill="#F1AE58"/>
<path d="M30.4177 14.8132L30.4177 17.4869L31.7676 17.4869L31.7676 14.8132L30.4177 14.8132Z" fill="#F1AE58"/>
</svg>