<svg xmlns="http://www.w3.org/2000/svg" width="24" height="24" viewBox="0 0 24 24" fill="none">
    <path d="M14.2072 7.04318C13.738 6.56545 13.1786 6.18537 12.5615 5.92491C11.9444 5.66445 11.2818 5.52876 10.6119 5.52569C9.94208 5.52261 9.27825 5.65221 8.65879 5.90699C8.03933 6.16177 7.47651 6.53669 7.00284 7.01009C6.52917 7.4835 6.15404 8.046 5.89912 8.66512C5.64419 9.28424 5.51453 9.9477 5.5176 10.6172C5.52068 11.2867 5.65644 11.9489 5.91705 12.5657C6.17766 13.1824 6.55794 13.7415 7.03594 14.2105C7.9899 15.1465 9.27509 15.6682 10.6119 15.6621C11.9488 15.656 13.2291 15.1225 14.1744 14.1777C15.1198 13.2329 15.6535 11.9533 15.6597 10.6172C15.6658 9.28108 15.1438 7.9966 14.2072 7.04318ZM5.93278 5.94064C7.12864 4.74575 8.73605 4.05257 10.4263 4.00287C12.1166 3.95317 13.762 4.55069 15.026 5.67324C16.2901 6.7958 17.0774 8.35858 17.2268 10.042C17.3763 11.7254 16.8766 13.4023 15.83 14.7298L20 18.8975L18.8968 20L14.7268 15.8323C13.3982 16.8745 11.7218 17.3708 10.0396 17.2199C8.35745 17.0691 6.7962 16.2826 5.67438 15.0207C4.55255 13.7589 3.95466 12.1168 4.00268 10.4295C4.0507 8.74216 4.74101 7.13672 5.93278 5.94064Z" fill="#969696"/>
</svg>